<svg height="15" viewBox="0 0 100 100" width="15" xmlns="http://www.w3.org/2000/svg"><g fill="#333" fill-rule="nonzero"><path d="m31.7431193 68.6238532.2752293-.2752293 3.2110092-3.4862386.0917431-.0917431 1.7431193-1.9266055s0 0 .0917431.0917431c-3.4862385-3.3027523-5.5963303-7.9816514-5.5963303-13.2110092 0-10.1834862 8.2568808-18.4403669 18.440367-18.4403669 3.3944954 0 6.5137615.9174312 9.1743119 2.4770642l3.6697248-6.6055046.1834862-.3669725 3.6697248-6.7889908.1834862-.3669725 3.6697248-6.7889908.1834863-.3669725 1.9266055-3.57798163 1.3761467-2.56880734c-6.972477-3.94495413-14.9541284-6.23853211-23.4862385-6.33027523h-.8256881c-27.3394495 0-49.44954124 22.0183486-49.7247706 49.266055v.4587156c0 14.2201835 6.05504587 27.0642202 15.6880734 36.146789l2.4770642-2.6605504 2.4770642-2.6605505.2752294-.2752293 5.2293578-5.6880734.2752293-.2752294zm52.8440367-54.587156-4.7706422 5.1376147-.2752294.2752294-5.2293578 5.6880734-.2752294.2752293-5.2293578 5.6880734-.2752293.2752294-1.9266055 2.1100917-3.2110092 3.3944954c3.1192661 3.3027523 5.0458716 7.7981652 5.0458716 12.6605505 0 10.1834862-8.2568808 18.440367-18.3486239 18.440367-3.119266 0-5.9633027-.733945-8.5321101-2.1100918l-3.6697247 6.6055046-5.2293578 9.2660551-2.7522936 4.8623853-.1834863.3669725-3.5779816 6.3302752c7.0642202 3.853211 15.2293578 6.146789 23.853211 6.146789 27.4311927 0 49.7247706-22.293578 49.7247706-49.7247707-.0917431-14.0366972-5.8715596-26.6055045-15.1376146-35.6880734z"/><path d="m50 46.146789c-1.9266055 0-3.4862385 1.559633-3.4862385 3.4862385s1.559633 3.4862386 3.4862385 3.4862386 3.4862385-1.5596331 3.4862385-3.4862386-1.559633-3.4862385-3.4862385-3.4862385z"/></g></svg>